<svg width="32" height="32" viewBox="0 0 32 32" fill="none" xmlns="http://www.w3.org/2000/svg">
  <path d="M16 32C24.8366 32 32 24.8366 32 16C32 7.16344 24.8366 0 16 0C7.16344 0 0 7.16344 0 16C0 24.8366 7.16344 32 16 32Z" fill="#F3BA2F"/>
  <path d="M12.116 14.404L16 10.52L19.886 14.406L22.146 12.146L16 6L9.856 12.144L12.116 14.404Z" fill="white"/>
  <path d="M16 18.287L19.886 14.401L22.146 16.661L16 22.807L9.856 16.663L12.116 14.403L16 18.287Z" fill="white"/>
  <path d="M19.886 14.404L16 18.29L12.116 14.406L9.856 16.666L16 22.81L22.146 16.664L19.886 14.404Z" fill="white"/>
  <path d="M16.001 14.404H15.999H16.001Z" fill="white"/>
  <path d="M22.994 15.405L21.61 16.789L20.226 15.405L21.61 14.021L22.994 15.405Z" fill="white"/>
  <path d="M11.774 15.405L10.39 16.789L9.006 15.405L10.39 14.021L11.774 15.405Z" fill="white"/>
</svg> 