<?xml version="1.0" encoding="UTF-8"?>
<svg width="24" height="24" viewBox="0 0 24 24" fill="none" xmlns="http://www.w3.org/2000/svg">
  <circle cx="12" cy="12" r="12" fill="#8247E5"/>
  <path d="M15.75 9.722C15.4 9.534 14.95 9.534 14.55 9.722L12.7 10.797L11.45 11.497L9.6 12.572C9.25 12.76 8.8 12.76 8.4 12.572L6.95 11.722C6.6 11.534 6.35 11.159 6.35 10.747V9.084C6.35 8.672 6.55 8.297 6.95 8.109L8.4 7.297C8.75 7.109 9.2 7.109 9.6 7.297L11.05 8.147C11.4 8.334 11.65 8.709 11.65 9.122V10.197L12.9 9.459V8.384C12.9 7.972 12.7 7.597 12.3 7.409L9.65 5.959C9.3 5.772 8.85 5.772 8.45 5.959L5.75 7.409C5.35 7.597 5.15 7.972 5.15 8.384V11.447C5.15 11.859 5.35 12.234 5.75 12.422L8.45 13.872C8.8 14.059 9.25 14.059 9.65 13.872L11.5 12.834L12.75 12.097L14.6 11.059C14.95 10.872 15.4 10.872 15.8 11.059L17.25 11.909C17.6 12.097 17.85 12.472 17.85 12.884V14.547C17.85 14.959 17.65 15.334 17.25 15.522L15.8 16.334C15.45 16.522 15 16.522 14.6 16.334L13.15 15.484C12.8 15.297 12.55 14.922 12.55 14.509V13.434L11.3 14.172V15.247C11.3 15.659 11.5 16.034 11.9 16.222L14.6 17.672C14.95 17.859 15.4 17.859 15.8 17.672L18.5 16.222C18.85 16.034 19.1 15.659 19.1 15.247V12.184C19.1 11.772 18.9 11.397 18.5 11.209L15.75 9.722Z" fill="white"/>
</svg> 