<svg width="32" height="32" viewBox="0 0 32 32" fill="none" xmlns="http://www.w3.org/2000/svg">
  <path d="M16 32C24.8366 32 32 24.8366 32 16C32 7.16344 24.8366 0 16 0C7.16344 0 0 7.16344 0 16C0 24.8366 7.16344 32 16 32Z" fill="#8247E5"/>
  <path d="M21.092 12.693C20.686 12.45 20.141 12.45 19.698 12.693L16.891 14.235L14.933 15.223L12.126 16.765C11.72 17.008 11.175 17.008 10.732 16.765L8.53196 15.466C8.12596 15.223 7.85796 14.775 7.85796 14.29V11.729C7.85796 11.244 8.08996 10.796 8.53196 10.553L10.695 9.29102C11.101 9.04802 11.646 9.04802 12.089 9.29102L14.252 10.553C14.658 10.796 14.926 11.244 14.926 11.729V13.271L16.884 12.246V10.667C16.884 10.182 16.652 9.73402 16.21 9.49102L12.126 7.13702C11.72 6.89402 11.175 6.89402 10.732 7.13702L6.57596 9.49102C6.13396 9.73402 5.90196 10.182 5.90196 10.667V15.352C5.90196 15.837 6.13396 16.285 6.57596 16.528L10.732 18.882C11.138 19.125 11.683 19.125 12.126 18.882L14.933 17.377L16.891 16.352L19.698 14.847C20.104 14.604 20.649 14.604 21.092 14.847L23.255 16.109C23.661 16.352 23.929 16.8 23.929 17.285V19.846C23.929 20.331 23.697 20.779 23.255 21.022L21.092 22.321C20.686 22.564 20.141 22.564 19.698 22.321L17.535 21.059C17.129 20.816 16.861 20.368 16.861 19.883V18.341L14.903 19.366V20.945C14.903 21.43 15.135 21.878 15.577 22.121L19.733 24.475C20.139 24.718 20.684 24.718 21.127 24.475L25.283 22.121C25.689 21.878 25.957 21.43 25.957 20.945V16.26C25.957 15.775 25.725 15.327 25.283 15.084L21.092 12.693Z" fill="white"/>
</svg> 